<svg xmlns="http://www.w3.org/2000/svg" xmlns:xlink="http://www.w3.org/1999/xlink" preserveAspectRatio="xMidYMid meet" version="1.1" viewBox="68.9 78.1 294.1 250.5" zoomAndPan="magnify" style="fill: rgb(0, 0, 0);" original_string_length="8366" role="img" aria-label="Business Briefcase Office Line Icon Style">
 <g id="__id47_srtbh0a8c">
  <g id="__id48_srtbh0a8c"><path d="m338.41 145.2c0-7.41-6-13.41-13.41-13.41h-217.4c-7.41 0-13.416 6-13.416 13.41v43.79c0 0.23 0.023 0.45 0.035 0.67-0.016 0.44-0.035 0.87-0.035 1.32v6.09c0 23.95 19.016 42.38 42.476 42.38h159.28c23.46 0 42.47-18.43 42.47-42.38v-6.09c0-0.45-0.02-0.88-0.03-1.32 0.01-0.22 0.03-0.44 0.03-0.67v-43.79" style="fill: rgb(88, 186, 43);"></path></g>
  <g id="__id49_srtbh0a8c"><path d="m107.6 133.56c-6.42 0-11.635 5.22-11.635 11.64v43.79c0 0.12 0.008 0.23 0.015 0.35l0.02 0.3-0.016 0.38c-0.007 0.32-0.019 0.63-0.019 0.96v6.09c0 22.77 17.875 40.61 40.695 40.61h159.28c22.82 0 40.7-17.84 40.7-40.61v-6.09c0-0.35-0.02-0.68-0.03-1.02l-0.01-0.31 0.02-0.33c0.01-0.11 0.02-0.22 0.02-0.33v-43.79c0-6.42-5.22-11.64-11.64-11.64zm188.34 107.67h-159.28c-24.82 0-44.254-19.4-44.254-44.16v-6.09c0-0.37 0.012-0.72 0.024-1.08l0.008-0.21-0.008-0.12c-0.012-0.19-0.024-0.38-0.024-0.58v-43.79c0-8.38 6.813-15.19 15.194-15.19h217.4c8.38 0 15.19 6.81 15.19 15.19v43.79c0 0.19-0.01 0.37-0.02 0.55l-0.01 0.14 0.01 0.16c0.01 0.38 0.02 0.75 0.02 1.14v6.09c0 24.76-19.43 44.16-44.25 44.16" style="fill: rgb(0, 0, 0);"></path></g>
  <g id="__id50_srtbh0a8c"><path d="m338.41 145.2c0-7.41-6-13.41-13.41-13.41h-217.4c-7.41 0-13.416 6-13.416 13.41v43.79c0 0.23 0.023 0.45 0.035 0.67-0.016 0.44-0.035 0.87-0.035 1.32v6.09c0 23.95 19.016 42.38 42.476 42.38h159.28c23.46 0 42.47-18.43 42.47-42.38v-6.09c0-0.45-0.02-0.88-0.03-1.32 0.01-0.22 0.03-0.44 0.03-0.67v-43.79" style="fill: rgb(88, 186, 43);"></path></g>
  <g id="__id51_srtbh0a8c"><path d="m107.6 133.56c-6.42 0-11.635 5.22-11.635 11.64v43.79c0 0.12 0.008 0.23 0.015 0.35l0.02 0.3-0.016 0.38c-0.007 0.32-0.019 0.63-0.019 0.96v6.09c0 22.77 17.875 40.61 40.695 40.61h159.28c22.82 0 40.7-17.84 40.7-40.61v-6.09c0-0.35-0.02-0.68-0.03-1.02l-0.01-0.31 0.02-0.33c0.01-0.11 0.02-0.22 0.02-0.33v-43.79c0-6.42-5.22-11.64-11.64-11.64zm188.34 107.67h-159.28c-24.82 0-44.254-19.4-44.254-44.16v-6.09c0-0.37 0.012-0.72 0.024-1.08l0.008-0.21-0.008-0.12c-0.012-0.19-0.024-0.38-0.024-0.58v-43.79c0-8.38 6.813-15.19 15.194-15.19h217.4c8.38 0 15.19 6.81 15.19 15.19v43.79c0 0.19-0.01 0.37-0.02 0.55l-0.01 0.14 0.01 0.16c0.01 0.38 0.02 0.75 0.02 1.14v6.09c0 24.76-19.43 44.16-44.25 44.16" style="fill: rgb(0, 0, 0);"></path></g>
  <g id="__id52_srtbh0a8c"><path d="m170.37 131.79v-5.8c0-5.9 5.55-10.69 12.41-10.69h67.04c6.86 0 12.41 4.79 12.41 10.69v5.8h11.99v-12.3c0-8.64-7-15.65-15.64-15.65h-84.56c-8.64 0-15.64 7.01-15.64 15.65v12.3h11.99" style="fill: rgb(88, 186, 43);"></path></g>
  <g id="__id53_srtbh0a8c"><path d="m264.01 130.01h8.44v-10.52c0-7.65-6.23-13.87-13.87-13.87h-84.56c-7.64 0-13.86 6.22-13.86 13.87v10.52h8.43v-4.02c0-6.88 6.36-12.47 14.19-12.47h67.04c7.82 0 14.19 5.59 14.19 12.47zm11.99 3.55h-15.55v-7.57c0-4.92-4.77-8.91-10.63-8.91h-67.04c-5.87 0-10.63 3.99-10.63 8.91v7.57h-15.55v-14.07c0-9.61 7.81-17.42 17.42-17.42h84.56c9.61 0 17.42 7.81 17.42 17.42v14.07" style="fill: rgb(0, 0, 0);"></path></g>
  <g id="__id54_srtbh0a8c"><path d="m295.94 239.45h-159.28c-10.05 0-19.27-3.38-26.54-9.13v53.84c0 7.41 6 13.41 13.41 13.41h185.54c7.4 0 13.41-6 13.41-13.41v-53.84c-7.27 5.75-16.5 9.13-26.54 9.13" style="fill: rgb(88, 186, 43);"></path></g>
  <g id="__id55_srtbh0a8c"><path d="m111.9 233.82v50.34c0 6.42 5.22 11.64 11.63 11.64h185.54c6.41 0 11.63-5.22 11.63-11.64v-50.34c-7.28 4.86-15.77 7.41-24.76 7.41h-159.28c-8.99 0-17.48-2.55-24.76-7.41zm197.17 65.53h-185.54c-8.37 0-15.19-6.81-15.19-15.19v-57.51l2.88 2.28c7.25 5.72 16.04 8.75 25.44 8.75h159.28c9.4 0 18.19-3.03 25.44-8.75l2.88-2.28v57.51c0 8.38-6.82 15.19-15.19 15.19" style="fill: rgb(0, 0, 0);"></path></g>
  <g id="__id56_srtbh0a8c"><path d="m226.51 248.81c0 5.17-4.19 9.37-9.36 9.37s-9.37-4.2-9.37-9.37v-18.71c0-5.17 4.2-9.37 9.37-9.37s9.36 4.2 9.36 9.37v18.71" style="fill: rgb(88, 186, 43);"></path></g>
  <g id="__id57_srtbh0a8c"><path d="m217.15 222.51c-4.19 0-7.59 3.4-7.59 7.59v18.71c0 4.18 3.4 7.59 7.59 7.59 4.18 0 7.58-3.41 7.58-7.59v-18.71c0-4.19-3.4-7.59-7.58-7.59zm0 37.44c-6.15 0-11.15-5-11.15-11.14v-18.71c0-6.15 5-11.15 11.15-11.15 6.14 0 11.14 5 11.14 11.15v18.71c0 6.14-5 11.14-11.14 11.14" style="fill: rgb(0, 0, 0);"></path></g>
  <g id="__id58_srtbh0a8c"><path d="m95.133 109.61c-1.055 0-1.906-0.85-1.906-1.91v-27.649c0-1.055 0.851-1.906 1.906-1.906 1.051 0 1.906 0.851 1.906 1.906v27.649c0 1.06-0.855 1.91-1.906 1.91" style="fill: rgb(0, 0, 0);"></path></g>
  <g id="__id59_srtbh0a8c"><path d="m108.96 95.785h-27.655c-1.051 0-1.907-0.855-1.907-1.906 0-1.055 0.856-1.91 1.907-1.91h27.655c1.06 0 1.91 0.855 1.91 1.91 0 1.051-0.85 1.906-1.91 1.906" style="fill: rgb(0, 0, 0);"></path></g>
  <g id="__id60_srtbh0a8c"><path d="m126.54 116.12h-20.74c-1.05 0-1.91-0.85-1.91-1.91 0-1.05 0.86-1.91 1.91-1.91h20.74c1.05 0 1.91 0.86 1.91 1.91 0 1.06-0.86 1.91-1.91 1.91" style="fill: rgb(0, 0, 0);"></path></g>
  <g id="__id61_srtbh0a8c"><path d="m116.17 126.49c-1.05 0-1.9-0.85-1.9-1.91v-20.74c0-1.05 0.85-1.9 1.9-1.9 1.06 0 1.91 0.85 1.91 1.9v20.74c0 1.06-0.85 1.91-1.91 1.91" style="fill: rgb(0, 0, 0);"></path></g>
  <g id="__id62_srtbh0a8c"><path d="m347.21 311.79c-1.06 0-1.91-0.86-1.91-1.91v-27.65c0-1.06 0.85-1.91 1.91-1.91 1.05 0 1.9 0.85 1.9 1.91v27.65c0 1.05-0.85 1.91-1.9 1.91" style="fill: rgb(0, 0, 0);"></path></g>
  <g id="__id63_srtbh0a8c"><path d="m361.03 297.96h-27.65c-1.06 0-1.91-0.85-1.91-1.91 0-1.05 0.85-1.91 1.91-1.91h27.65c1.06 0 1.91 0.86 1.91 1.91 0 1.06-0.85 1.91-1.91 1.91" style="fill: rgb(0, 0, 0);"></path></g>
  <g id="__id64_srtbh0a8c"><path d="m336.54 318.3h-20.74c-1.06 0-1.91-0.86-1.91-1.91s0.85-1.91 1.91-1.91h20.74c1.05 0 1.91 0.86 1.91 1.91s-0.86 1.91-1.91 1.91" style="fill: rgb(0, 0, 0);"></path></g>
  <g id="__id65_srtbh0a8c"><path d="m326.17 328.66c-1.06 0-1.91-0.85-1.91-1.9v-20.74c0-1.05 0.85-1.91 1.91-1.91 1.05 0 1.9 0.86 1.9 1.91v20.74c0 1.05-0.85 1.9-1.9 1.9" style="fill: rgb(0, 0, 0);"></path></g>
  <g id="__id66_srtbh0a8c"><path d="m322.44 145.17h-57.22c-1.05 0-1.9-0.85-1.9-1.91 0-1.05 0.85-1.9 1.9-1.9h57.22c1.05 0 1.91 0.85 1.91 1.9 0 1.06-0.86 1.91-1.91 1.91" style="fill: rgb(0, 0, 0);"></path></g>
  <g id="__id67_srtbh0a8c"><path d="m257.59 145.17h-17.64c-1.05 0-1.9-0.85-1.9-1.91 0-1.05 0.85-1.9 1.9-1.9h17.64c1.06 0 1.91 0.85 1.91 1.9 0 1.06-0.85 1.91-1.91 1.91" style="fill: rgb(0, 0, 0);"></path></g>
  <g id="__id68_srtbh0a8c"><path d="m148.43 316.39l-77.625-12.93 17.738-106.51 77.637 12.93-17.75 106.51" style="fill: rgb(88, 186, 43);"></path></g>
  <g id="__id69_srtbh0a8c"><path d="m72.852 302l74.118 12.34 17.16-103-74.122-12.34zm75.588 16.17c-0.1 0-0.2-0.01-0.3-0.03l-77.628-12.93c-0.969-0.16-1.625-1.07-1.461-2.05l17.738-106.5c0.164-0.97 1.074-1.62 2.047-1.46l77.634 12.93c0.46 0.07 0.88 0.33 1.15 0.72 0.28 0.38 0.39 0.86 0.31 1.33l-17.74 106.5c-0.15 0.87-0.9 1.49-1.75 1.49" style="fill: rgb(0, 0, 0);"></path></g>
  <g id="__id70_srtbh0a8c"><path d="m97.566 211.53l55.344 9.22" style="fill: rgb(88, 186, 43);"></path></g>
  <g id="__id71_srtbh0a8c"><path d="m152.92 222.52c-0.1 0-0.2 0-0.3-0.02l-55.343-9.22c-0.972-0.16-1.625-1.08-1.465-2.05 0.161-0.96 1.075-1.62 2.047-1.46l55.351 9.22c0.97 0.16 1.62 1.08 1.46 2.05-0.15 0.87-0.9 1.48-1.75 1.48" style="fill: rgb(0, 0, 0);"></path></g>
  <g id="__id72_srtbh0a8c"><path d="m94.949 227.25l55.341 9.22" style="fill: rgb(88, 186, 43);"></path></g>
  <g id="__id73_srtbh0a8c"><path d="m150.3 238.25c-0.1 0-0.2 0-0.3-0.02l-55.344-9.22c-0.968-0.16-1.625-1.08-1.461-2.05 0.16-0.97 1.075-1.62 2.047-1.46l55.348 9.22c0.96 0.16 1.62 1.08 1.46 2.05-0.15 0.87-0.9 1.48-1.75 1.48" style="fill: rgb(0, 0, 0);"></path></g>
  <g id="__id74_srtbh0a8c"><path d="m92.328 242.98l55.352 9.22" style="fill: rgb(88, 186, 43);"></path></g>
  <g id="__id75_srtbh0a8c"><path d="m147.68 253.98c-0.1 0-0.2-0.01-0.3-0.02l-55.345-9.22c-0.965-0.17-1.621-1.08-1.461-2.05s1.074-1.63 2.047-1.46l55.349 9.22c0.97 0.16 1.62 1.07 1.46 2.04-0.14 0.87-0.9 1.49-1.75 1.49" style="fill: rgb(0, 0, 0);"></path></g>
  <g id="__id76_srtbh0a8c"><path d="m89.707 258.71l55.343 9.22" style="fill: rgb(88, 186, 43);"></path></g>
  <g id="__id77_srtbh0a8c"><path d="m145.06 269.71c-0.1 0-0.2-0.01-0.29-0.03l-55.356-9.22c-0.965-0.16-1.621-1.07-1.461-2.04s1.074-1.63 2.047-1.46l55.35 9.22c0.97 0.16 1.62 1.07 1.46 2.04-0.15 0.87-0.9 1.49-1.75 1.49" style="fill: rgb(0, 0, 0);"></path></g>
  <g id="__id78_srtbh0a8c"><path d="m87.09 274.44l55.34 9.22" style="fill: rgb(88, 186, 43);"></path></g>
  <g id="__id79_srtbh0a8c"><path d="m142.44 285.44c-0.1 0-0.2-0.01-0.3-0.03l-55.343-9.22c-0.969-0.16-1.625-1.08-1.461-2.05 0.16-0.96 1.074-1.62 2.047-1.46l55.347 9.22c0.97 0.16 1.62 1.08 1.46 2.05-0.14 0.87-0.9 1.49-1.75 1.49" style="fill: rgb(0, 0, 0);"></path></g>
  <g id="__id80_srtbh0a8c"><path d="m84.469 290.16l55.351 9.23" style="fill: rgb(88, 186, 43);"></path></g>
  <g id="__id81_srtbh0a8c"><path d="m139.82 301.16c-0.1 0-0.2 0-0.3-0.02l-55.344-9.22c-0.969-0.16-1.621-1.08-1.461-2.04 0.16-0.97 1.074-1.63 2.047-1.47l55.348 9.22c0.97 0.16 1.62 1.08 1.46 2.05-0.14 0.87-0.9 1.48-1.75 1.48" style="fill: rgb(0, 0, 0);"></path></g>
 </g>
</svg>